<svg fill="none" height="14" viewBox="0 0 14 14" width="14" xmlns="http://www.w3.org/2000/svg"><path d="m13.6861 11.0733-2.162-2.1672c-.4307-.42989-1.1438-.41683-1.58949.03l-1.08927 1.0915c-.06882-.03803-.14005-.07773-.21494-.11986-.68786-.382-1.62931-.90557-2.62-1.89923-.99362-.99575-1.51649-1.94079-1.89879-2.63065-.04034-.07308-.079-.14355-.11716-.21047l.73105-.73162.35942-.36068c.44633-.44746.45864-1.16204.029-1.59317l-2.16208-2.167469c-.42965-.430534-1.14313-.417472-1.58946.029993l-.609348.614236.016652.016568c-.204323.261302-.375061.562682-.50212.887672-.117123.30936-.1900441.60456-.2233873.90037-.2854887 2.37213.7960543 4.54008 3.7312233 7.48191 4.0573 4.0662 7.3269 3.7591 7.468 3.7441.3072-.0368.6016-.1104.9008-.2269.3215-.1258.622-.2967.8825-.5011l.0133.0119.6173-.6059c.4455-.4473.4583-1.1622.0288-1.594z" fill="#555"/></svg>